<svg xmlns="http://www.w3.org/2000/svg" viewBox="0 0 221.3 85"><path fill="#ffffff" d="M27.6 52.8H14.7l-2.8 13.6c-0.3 1.4-0.6 2-5 2 -1.5 0-4.4-0.1-6.9-0.4L16.2 2C16.5 0.6 18.1 0 20.6 0c1.8 0 3.8 0.1 5.2 0.4l16.2 66.1c0.3 1.3-0.5 1.9-4.9 1.9 -1.5 0-3.5 0-6.3-0.2L27.6 52.8zM16.7 43h8.8l-1.8-9c-1.1-5.2-1.9-12.3-2.5-18.4 -0.7 6.1-1.6 13.2-2.6 18.4L16.7 43zM69.8 28.3c0 1.5-0.8 3.4-1.9 4.7 -2.4-1.3-4.8-1.8-7.6-1.8 -2.8 0-4.1 1-4.1 2.6 0 1 0.3 2 2.5 4.4l6.5 6.6c3.5 4 4.4 6.6 4.4 11 0 7.9-5.8 12.6-14.8 12.6 -5.6 0-10.3-1.2-10.3-5.2 0-1.4 0.4-3.4 1.6-5.5 2.5 1.3 5.2 1.9 7.6 1.9 3.1 0 4.5-1.5 4.5-3.7 0-1.2-0.2-2.9-1.9-4.9l-7.6-8.1c-3.1-3.2-4.2-6.8-4.2-9.3 0-6.1 3.6-10.9 14.5-10.9C68.8 22.8 69.8 26.1 69.8 28.3zM83.6 66.7c0 1.8-0.1 1.8-10.4 1.8V27.2c0-4.5 2-4.5 10.4-4.5V66.7zM79.2 0.2c3.6 0 4.6 1.7 4.6 6.3 0 4.7-1.8 7.5-5.2 7.5 -2.9 0-4.7-1.6-4.7-7C73.9 3 75.6 0.2 79.2 0.2zM89.4 25.3c1.2-1 6.1-2.5 13.1-2.5 8.1 0 11.1 2.8 11.1 10.7v4.1c0 10.1 0 21.5-0.4 28 -3 1.8-7.4 2.8-12.6 2.8 -6.5 0-12.5-1.5-12.5-13.7 0-12 4.9-14.5 10.1-14.5 1.3 0 4 0.3 5.6 1.3v-6.1c0-2.3-1-3.2-3.7-3.2 -3.2 0-7.6 0.8-10.5 1.8 -1.1-2-1.3-4.3-1.3-5.7C88.2 27.4 88.7 26 89.4 25.3zM101.5 47.5c-1.9 0-3.1 1.4-3.1 7 0 4.2 0.6 5.9 2.8 5.9 0.8 0 1.8-0.3 2.4-0.9 0.2-1.9 0.2-7.6 0.2-11.3C103.1 47.7 102.2 47.5 101.5 47.5zM136.9 23.6h10.5c0.5 1.1 1.1 2.6 1.1 4.8 0 2.6-1.3 3.6-3.1 3.6 -0.5 0-1.1-0.1-1.9-0.2 1.3 1.9 2.1 4.5 2.1 7.9 0 9.5-4.1 14.4-14.3 14.4 -0.9 0-1.6 0-2.4-0.1 -0.6 0.9-1.1 1.7-1.1 2.5 0 1.4 3.3 1.1 7.6 1.9 7.5 1.2 11.6 4 11.6 10.9 0 8.6-4.8 15.7-16.7 15.7 -12.1 0-14.3-5.4-14.3-9.9 0-4.1 2.4-7.5 5.9-10 -3.1-0.9-4.8-2.6-4.7-5 0.1-2.5 1.8-5.1 5.5-8.2 -3.8-2.6-5.2-7.1-5.2-12.8 0-12.5 5.6-16.4 14.9-16.4C133.8 22.8 135.4 23.1 136.9 23.6zM129.7 66.5c-1.9 1.5-3.3 3.8-3.3 6.3 0 2.2 1.1 3.4 5.1 3.4 4.3 0 5.6-3.2 5.6-5.3C137.1 68.3 136.5 67.1 129.7 66.5zM128.1 39c0 6.3 0.9 8.1 3.7 8.1 2.6 0 3.9-1.7 3.9-9.7 0-5.6-1-7.4-3.6-7.4C129.7 30 128.1 32.1 128.1 39zM163.4 22.8c9.4 0 13.7 4.7 13.7 22.4 0 16.9-4.9 23.3-14.4 23.3 -9.5 0-13.9-3.2-13.9-22.9C148.9 29.7 154.1 22.8 163.4 22.8zM163 60.3c1.7 0 3.3-1.3 3.3-14.8 0-12.6-0.7-14.2-3.2-14.2 -1.9 0-3.4 1.8-3.4 14.2C159.6 59.2 160.8 60.3 163 60.3z"/><path fill="#ffffff" d="M185.2 62.1c2.4 0 3.2 1.3 3.2 3.3 0 1.7-1.2 3.2-3.2 3.2 -2.5 0-3.2-1.2-3.2-3.2C182 63.6 183.2 62.1 185.2 62.1zM200.6 67c0 1.3-0.1 1.3-7.2 1.3V40c0-3.1 1.4-3.1 7.2-3.1V67zM197.6 22.8c2.6 0 3.3 1.2 3.3 4.6 0 3.4-1.3 5.4-3.8 5.4 -2.1 0-3.4-1.1-3.4-5.1C193.8 24.8 195 22.8 197.6 22.8zM208.3 41.2h-4c0-5.7 0.1-6.3 1.5-6.3h2.5v-9.7c0-2.3 1.5-2.3 7.5-2.3v12h5.5c0 5.7-0.1 6.3-1.5 6.3h-4v18.2c0 1.5 0 3.2 1.6 3.2 1.2 0 2.2-0.3 3.5-0.9 0.2 0.9 0.5 2.1 0.5 3.6 0 3.2-3.5 3.6-6.1 3.6 -5.9 0-6.9-3.5-6.9-9.4V41.2z"/></svg>