<?xml version="1.0" encoding="utf-8"?>
<svg xmlns="http://www.w3.org/2000/svg">
	<symbol id="ancora" viewBox="0 0 24.23 28.346">
		<path d="M22.994 22.318L.205 28.346 0 27.569l22.777-6.027c.132-.043.831-.318.598-1.352l.787-.178c.331 1.461-.62 2.147-1.168 2.306zM7.035 18.499a.43.43 0 0 0 .601-.077l.159-.205a.43.43 0 0 0-.077-.601l-3.945-3.052a.43.43 0 0 0-.601.077l-.159.205a.43.43 0 0 0 .077.601l3.945 3.052zM5.981 4.433a2.217 2.217 0 1 0 0-4.434 2.217 2.217 0 0 0 0 4.434zm1.762 1.285c-.342-.407-.836-.68-1.409-.68-1.03 0-1.864.835-1.864 1.864v5.863h.012c.045.657.402 1.23.944 1.539l-.003.006 4.538 3.349v5.516h2.368V16.44l-.014.014a1.188 1.188 0 0 0-.331-.769l-.012-.012-.155-.155-3.619-3.619V7.658h4.219L9.11 11.439l.608.532 9.388-10.737-.605-.532-4.387 5.016H7.743z"/>
	</symbol>
	<symbol id="seggiovia" viewBox="0 0 24.353 28.346">
		<path d="M8.818 5.298a2.228 2.228 0 1 1-4.456 0 2.228 2.228 0 0 1 4.456 0zM23.11 22.287c.551-.16 1.506-.85 1.174-2.318l-.791.179c.234 1.04-.468 1.317-.601 1.359L0 27.565l.206.782 22.904-6.06zm-10.73-7.149H8.818v-5.131a1.874 1.874 0 1 0-3.748 0v5.811c0 .963.736 1.727 1.671 1.833v.041h4.139v5.143h2.288v-6.908a.787.787 0 0 0-.788-.789zm-2.472 3.918h-4.68c-1.372 0-1.491-1.393-1.499-1.53V0H2.92v17.545c.04.804.571 2.321 2.309 2.321h4.679v-.81z"/>
	</symbol>
	<symbol id="skilift" viewBox="0 0 24.458 28.346">
		<path d="M13.625 5.984L18.34.554l.617.534-8.975 10.331-.613-.534 2.741-3.156-4.351-.624 1.294 4.761.004-.001 2.928 10.774-2.756.749-2.499-9.197a1.832 1.832 0 0 1-1.235-1.154l-.065-.151-1.454-5.35-.196-.724c-.003-.052-.013-.105-.011-.157.024-.806.561-1.489 1.378-1.758.096-.032.162-.016.241-.021l-.001-.024.291-.001.011-.001v.001c.063 0 .136 0 .157.002l.124.018 7.655 1.113zm-8.182 6.95l-.013-.048c.002.009-.001.017.002.025.002.009.009.014.011.023zm-.438.994l-.746.43a.134.134 0 0 0-.049.181l1.464 2.536a.134.134 0 0 0 .181.049l.746-.431a.133.133 0 0 0 .049-.181l-1.464-2.536a.132.132 0 0 0-.181-.048zm-.3-9.53A2.238 2.238 0 1 0 3.532.079a2.238 2.238 0 0 0 1.173 4.319zM24.39 19.933l-.795.18c.235 1.044-.47 1.322-.604 1.365L0 27.561l.207.785 23.004-6.086c.552-.16 1.512-.853 1.179-2.327z"/>
	</symbol>
	<symbol id="tapis-roulant" viewBox="0 0 23.207 28.346">
		<path d="M21.299 17.496L.19 23.081 0 22.358l8.424-2.228-.075-6.775a1.692 1.692 0 0 1-.954-1.392h-.021l-.001-.103c0-.008-.005-.015-.005-.024 0-.008.004-.015.004-.023l-.056-5.384c0-.008-.005-.014-.005-.022 0-.008.004-.015.004-.023v-.083h.017A1.692 1.692 0 0 1 9.02 4.686a1.734 1.734 0 0 1 1.734 1.579h.015l.001.071c.001.019.011.035.012.054 0 .02-.01.037-.011.057l.005.458 3.217 4.054-1.408 1.117-1.779-2.242.02 1.911h.015l.092 7.723 10.169-2.689c.123-.039.77-.293.554-1.253l.729-.163c.306 1.351-.575 1.986-1.086 2.133zM8.693 4.107A2.054 2.054 0 1 0 8.65 0a2.054 2.054 0 0 0 .043 4.107zm12.776 19.222L3.302 28.265A2.36 2.36 0 0 1 .41 26.608c-.195-.722-.004-1.436.409-1.996l.117-.178.023.015c.294-.331.65-.611 1.109-.736l18.162-4.936a2.37 2.37 0 0 1 2.897 1.654 2.367 2.367 0 0 1-1.658 2.898zm-4.582-2.868l3.042 1.981 1.526-2.867a1.591 1.591 0 0 0-.607-.133c-.137 0-.28.019-.42.057l-3.541.962zm-5.471 1.771l-1.873 3.56 5.168-1.404-3.295-2.156zm3.221 1.573l1.694-3.192-4.644 1.263 2.95 1.929zm.214.545l5.069-1.377-3.224-2.1-1.845 3.477zm-8.337-1.069l2.855 1.877 1.632-3.097-4.487 1.22zm-4.937 1.574l2.533 1.659 1.589-3.012-3.437.935a1.57 1.57 0 0 0-.685.418zm7.947.943l-3.361-2.209-1.886 3.568-2.991-1.958c-.201.356-.27.787-.155 1.212.232.858 1.111 1.383 1.976 1.132l6.417-1.745zm12.878-5.167a1.592 1.592 0 0 0-.556-.836l-1.655 3.104 1.08-.294a1.608 1.608 0 0 0 1.131-1.974z"/>
	</symbol>
	<symbol id="webcam" viewBox="0 0 18.727 22.313">
		<path d="M18.727 9.364A9.363 9.363 0 0 0 9.364 0 9.363 9.363 0 0 0 0 9.364c0 5.019 3.952 9.104 8.913 9.341v2.708H5.657v.9H13.069v-.9H9.813v-2.708c4.961-.237 8.914-4.322 8.914-9.341zM15.05 5.102l.291.5a7.47 7.47 0 0 1 1.014 3.762c0 .969-.183 1.914-.546 2.81l-.217.536-1.072-.434.217-.536a6.304 6.304 0 0 0 .461-2.375 6.32 6.32 0 0 0-.856-3.18l-.291-.5.999-.583zm-1.844-1.626a.657.657 0 1 1-.001 1.313.657.657 0 0 1 .001-1.313zM6.059 9.364a3.305 3.305 0 1 1 6.61 0 3.305 3.305 0 0 1-6.61 0z"/>
	</symbol>
	<symbol id="minisite" viewBox="0 0 15 15">
		<path d="M14.982 7A7.498 7.498 0 0 0 8 .017V0H7v.017A7.499 7.499 0 0 0 .017 7H0v1h.017A7.498 7.498 0 0 0 7 14.982V15h1v-.018A7.497 7.497 0 0 0 14.982 8H15V7h-.018zM4.695 1.635C4.212 2.277 3.811 3.082 3.519 4H2.021a6.534 6.534 0 0 1 2.674-2.365zM1.498 5h1.758a11.876 11.876 0 0 0-.246 2H1.019a6.444 6.444 0 0 1 .479-2zm-.479 3H3.01c.027.697.112 1.368.246 2H1.498a6.444 6.444 0 0 1-.479-2zm1.002 3h1.497c.292.918.693 1.723 1.177 2.365A6.527 6.527 0 0 1 2.021 11zM7 13.936C5.972 13.661 5.087 12.557 4.55 11H7v2.936zM7 10H4.269a11.176 11.176 0 0 1-.259-2H7v2zm0-3H4.01c.029-.704.118-1.377.259-2H7v2zm0-3H4.55C5.087 2.443 5.972 1.339 7 1.065V4zm5.979 0h-1.496c-.293-.918-.693-1.723-1.178-2.365A6.54 6.54 0 0 1 12.979 4zM8 1.065C9.027 1.339 9.913 2.443 10.45 4H8V1.065zM8 5h2.73c.142.623.229 1.296.26 2H8V5zm0 3h2.99a11.085 11.085 0 0 1-.26 2H8V8zm0 5.936V11h2.45c-.537 1.557-1.423 2.661-2.45 2.936zm2.305-.571c.483-.643.885-1.447 1.178-2.365h1.496a6.533 6.533 0 0 1-2.674 2.365zM13.502 10h-1.758c.134-.632.219-1.303.246-2h1.99a6.415 6.415 0 0 1-.478 2zM11.99 7a11.876 11.876 0 0 0-.246-2h1.758c.26.623.426 1.296.479 2H11.99z"/>
	</symbol>
	<symbol id="showmore" viewBox="0 0 400 400">
		<path d="M199.995 0C89.716 0 0 89.72 0 200c0 110.279 89.716 200 199.995 200C310.277 400 400 310.279 400 200 400 89.72 310.277 0 199.995 0zm0 373.77C104.182 373.77 26.23 295.816 26.23 200c0-95.817 77.951-173.77 173.765-173.77 95.817 0 173.772 77.953 173.772 173.77.002 95.816-77.955 173.77-173.772 173.77z"/>
		<path d="M279.478 186.884h-66.363V120.52c0-7.243-5.872-13.115-13.115-13.115s-13.115 5.873-13.115 13.115v66.368h-66.361c-7.242 0-13.115 5.873-13.115 13.115 0 7.243 5.873 13.115 13.115 13.115h66.358v66.362c0 7.242 5.872 13.114 13.115 13.114 7.242 0 13.115-5.872 13.115-13.114v-66.365h66.367c7.241 0 13.114-5.873 13.114-13.115 0-7.243-5.873-13.116-13.115-13.116z"/>
	</symbol>
	<symbol id="showless" viewBox="0 0 400 400">
		<path d="M200 0C89.7 0 0 89.7 0 200s89.7 200 200 200 200-89.7 200-200S310.3 0 200 0zm0 373.8c-95.8 0-173.8-78-173.8-173.8 0-95.8 78-173.8 173.8-173.8 95.8 0 173.8 78 173.8 173.8 0 95.8-78 173.8-173.8 173.8z"/>
		<path d="M279.5 186.9h-159c-7.2 0-13.1 5.9-13.1 13.1 0 7.2 5.9 13.1 13.1 13.1h158.9c7.2 0 13.1-5.9 13.1-13.1.1-7.2-5.8-13.1-13-13.1z"/>
	</symbol>
	<symbol id="checkmark" viewBox="0 0 20 20">
		<path d="M10 0a10 10 0 1 0 10 10A10 10 0 0 0 10 0zM8 15l-5-5 1.41-1.41L8 12.17l7.59-7.59L17 6z"/>
	</symbol>
	<symbol id="exclamation" viewBox="0 0 20 20">
		<path d="M10 0a10 10 0 1 0 10 10A10 10 0 0 0 10 0zm1 15H9v-2h2zm0-4H9V5h2z"/>
	</symbol>
</svg>
