<svg xmlns="http://www.w3.org/2000/svg" viewBox="0 0 175.492 53.671"><path fill="#FFF" d="M35.956 28.667a1.93 1.93 0 0 1 .762 2.62 1.952 1.952 0 0 1-2.675.643l-13.685-7.85v4.26l8.775 5.091a1.98 1.98 0 0 1-1.918 3.336l-6.859-3.978v7.012a1.895 1.895 0 1 1-3.787-.001v-7.016L9.71 36.762a1.749 1.749 0 0 1-2.271-.904 1.764 1.764 0 0 1 .353-2.429l8.781-5.091v-4.233L2.918 31.934a1.961 1.961 0 0 1-2.679-.643l-.008-.015a1.93 1.93 0 0 1 .784-2.613l13.667-7.84-3.616-2.072-8.369 4.792a1.737 1.737 0 0 1-2.241-.886 1.708 1.708 0 0 1 .348-2.368l6.48-3.712-5.996-3.439-.009-.005a1.93 1.93 0 0 1-.764-2.619 1.955 1.955 0 0 1 2.674-.643l13.38 7.677v-4.474L7.888 8a1.774 1.774 0 0 1-.349-2.429 1.729 1.729 0 0 1 2.253-.908l6.779 3.961V1.986a1.895 1.895 0 1 1 3.787.001V8.64l6.808-3.978a1.73 1.73 0 0 1 2.253.908 1.774 1.774 0 0 1-.35 2.429l-8.711 5.092v4.48L33.81 9.854a1.957 1.957 0 0 1 2.683.658 1.929 1.929 0 0 1-.78 2.614L22.287 20.83l3.601 2.064 8.306-4.758a1.734 1.734 0 0 1 2.241.885 1.709 1.709 0 0 1-.347 2.368l-6.416 3.675 6.271 3.597.013.006zm115.705 11.404c0 1.223.434 1.93 1.929 1.93 1.223 0 1.929-.87 1.929-1.93 0-1.196-.462-1.984-1.929-1.984-1.223 0-1.929.924-1.929 1.984zm-91.743 1.75c1.711.118 2.95.118 3.836.118 2.655 0 3.128-.413 2.951-1.18L56.849.629c-.826-.177-2.007-.236-3.128-.236-1.534 0-2.479.354-2.656 1.239L41.21 41.703c1.534.177 3.305.236 4.19.236 2.656 0 2.833-.413 3.01-1.239l1.711-8.262h7.849l1.948 9.383zm-7.436-20.833c.649-3.128 1.18-7.436 1.593-11.154.354 3.718.885 8.026 1.535 11.154l1.121 5.488H51.36l1.122-5.488zm24.506-6.769c-6.61 0-8.795 2.879-8.795 6.61 0 1.546.693 3.678 2.558 5.651l4.638 4.904c1.066 1.226 1.173 2.239 1.173 2.985 0 1.333-.853 2.239-2.719 2.239a9.976 9.976 0 0 1-4.638-1.173c-.693 1.279-.959 2.505-.959 3.358 0 2.399 2.825 3.145 6.237 3.145 5.437 0 8.955-2.878 8.955-7.676 0-2.666-.533-4.211-2.666-6.664L76.827 23.6c-1.386-1.439-1.546-2.079-1.546-2.666 0-1.013.799-1.599 2.506-1.599 1.652 0 3.145.32 4.584 1.12.693-.8 1.173-1.972 1.173-2.879.001-1.332-.585-3.357-6.556-3.357zm14.977-.014c-5.105 0-6.326 0-6.326 2.719v25.027c6.271 0 6.326 0 6.326-1.11V14.205zM86.06 4.63c0 3.323 1.107 4.272 2.848 4.272 2.057 0 3.165-1.688 3.165-4.536S91.44.515 89.277.515C87.062.516 86.06 2.204 86.06 4.63zm8.685 13.009c0 .853.16 2.238.799 3.464 1.758-.639 4.423-1.119 6.395-1.119 1.652 0 2.238.586 2.238 1.972v3.677c-.959-.64-2.611-.8-3.411-.8-3.144 0-6.129 1.492-6.129 8.793 0 7.408 3.624 8.313 7.568 8.313 3.197 0 5.862-.639 7.674-1.705.266-3.943.266-10.871.266-17V20.73c0-4.796-1.812-6.502-6.715-6.502-4.263 0-7.194.959-7.94 1.545-.478.374-.745 1.227-.745 1.866zm9.432 11.99c0 2.238 0 5.702-.107 6.874-.32.373-.959.533-1.439.533-1.333 0-1.706-1.012-1.706-3.57 0-3.411.693-4.263 1.865-4.263.428 0 1.014.107 1.387.426zm17.436-15.381c-5.614 0-9.037 2.353-9.037 9.946 0 3.422.855 6.203 3.155 7.754-2.246 1.872-3.262 3.476-3.315 4.973-.107 1.497.962 2.513 2.834 3.048-2.139 1.497-3.583 3.529-3.583 6.043 0 2.727 1.337 5.989 8.663 5.989 7.219 0 10.16-4.278 10.16-9.518 0-4.225-2.513-5.882-7.059-6.631-2.567-.428-4.599-.267-4.599-1.123 0-.481.267-.963.642-1.497.481.053.909.053 1.444.053 6.203 0 8.663-2.941 8.663-8.716 0-2.085-.481-3.636-1.284-4.813.428.053.803.107 1.123.107 1.069 0 1.871-.642 1.871-2.192 0-1.337-.321-2.299-.642-2.941h-6.364a8.274 8.274 0 0 0-2.672-.482zm2.781 29.23c0 1.283-.802 3.209-3.422 3.209-2.406 0-3.102-.749-3.102-2.085 0-1.551.856-2.941 2.032-3.85 4.118.374 4.492 1.069 4.492 2.726zm-3.048-24.865c1.605 0 2.193 1.123 2.193 4.492 0 4.866-.749 5.882-2.353 5.882-1.711 0-2.246-1.123-2.246-4.92 0-4.224.962-5.454 2.406-5.454zm10.199 9.427c0 11.929 2.663 13.899 8.414 13.899 5.751 0 8.733-3.834 8.733-14.112 0-10.757-2.61-13.579-8.307-13.579-5.645 0-8.84 4.153-8.84 13.792zm6.55-.053c0-7.562.905-8.627 2.077-8.627 1.544 0 1.97.959 1.97 8.627 0 8.201-1.012 9-2.023 9-1.332-.001-2.024-.693-2.024-9zm24.88-5.212c-3.505 0-4.344 0-4.344 1.867v17.182c4.305 0 4.344 0 4.344-.762V22.775zm-4.153-5.562c0 2.4.8 3.086 2.057 3.086 1.486 0 2.286-1.219 2.286-3.277 0-2.057-.457-2.781-2.019-2.781-1.6 0-2.324 1.219-2.324 2.972zm8.772 19.272c0 3.605.649 5.711 4.213 5.711 1.539 0 3.686-.243 3.686-2.187 0-.891-.162-1.621-.283-2.188-.77.365-1.377.527-2.107.527-.972 0-.972-1.013-.972-1.944V25.387h2.43c.851 0 .891-.365.891-3.848h-3.321v-7.291c-3.645 0-4.537 0-4.537 1.418v5.873h-1.498c-.891 0-.932.405-.932 3.848h2.43v11.098z"/><path fill="#B3E5FC" d="M48.046 51.174c0 .755-.265 1.338-.795 1.748-.53.41-1.287.615-2.272.615h-3.512v-7.702h3.271c2.045 0 3.067.621 3.067 1.864 0 .269-.064.515-.193.739a1.74 1.74 0 0 1-.589.588 2.467 2.467 0 0 1-.867.344v.021c.365.043.692.151.983.325.289.173.514.39.671.649.157.26.236.53.236.809zm-2.707-3.072c0-.476-.374-.714-1.122-.714h-.43v1.456h.671c.258 0 .469-.069.634-.207a.667.667 0 0 0 .247-.535zm.242 3.061c0-.222-.08-.405-.241-.548s-.375-.215-.64-.215h-.912v1.574h.773c.314 0 .563-.073.746-.217a.718.718 0 0 0 .274-.594zm10.812-1.498c0 .773-.167 1.465-.5 2.076a3.57 3.57 0 0 1-1.396 1.424 4.012 4.012 0 0 1-2.009.507 4.007 4.007 0 0 1-1.974-.492 3.472 3.472 0 0 1-1.383-1.38c-.33-.593-.494-1.263-.494-2.012 0-.784.166-1.49.499-2.116s.8-1.111 1.401-1.453c.602-.342 1.286-.513 2.053-.513.737 0 1.396.164 1.979.491a3.36 3.36 0 0 1 1.349 1.402c.316.607.475 1.296.475 2.066zm-2.461.064c0-.634-.121-1.133-.365-1.499-.243-.365-.576-.548-.998-.548-.463 0-.822.175-1.08.526s-.387.847-.387 1.488c0 .626.128 1.115.384 1.466s.604.526 1.045.526c.269 0 .511-.079.726-.236s.381-.383.499-.677.176-.641.176-1.046zm3.552 3.808v-7.702h2.32v5.887h2.652v1.815h-4.972zm5.951 0v-7.702h2.32v5.887h2.652v1.815h-4.972zm5.951 0v-7.702h4.796v1.815h-2.476v1.123h2.325v1.815h-2.325v1.133h2.652v1.815h-4.972zm9.963-5.887v5.887h-2.331V47.65h-2.154v-1.815h6.666v1.815h-2.181zm6.998 0v5.887h-2.331V47.65h-2.154v-1.815h6.666v1.815h-2.181zm3.106 5.887v-7.702h2.32v7.702h-2.32zm9.216 0l-2.717-3.717a8.789 8.789 0 0 1-.527-.795h-.021c.021.379.033.806.033 1.278v3.233h-2.148v-7.702h2.191l2.604 3.534.118.167a11.432 11.432 0 0 1 .272.398c.041.065.072.122.094.172h.021a7.113 7.113 0 0 1-.032-.816v-3.454h2.148v7.702h-2.036zm10.876-3.872c0 .773-.167 1.465-.5 2.076a3.57 3.57 0 0 1-1.396 1.424 4.012 4.012 0 0 1-2.009.507 4.007 4.007 0 0 1-1.974-.492 3.472 3.472 0 0 1-1.383-1.38c-.33-.593-.494-1.263-.494-2.012 0-.784.166-1.49.499-2.116s.8-1.111 1.401-1.453c.602-.342 1.286-.513 2.053-.513.737 0 1.396.164 1.979.491a3.36 3.36 0 0 1 1.349 1.402c.316.607.475 1.296.475 2.066zm-2.46.064c0-.634-.121-1.133-.365-1.499-.243-.365-.576-.548-.998-.548-.463 0-.822.175-1.08.526s-.387.847-.387 1.488c0 .626.128 1.115.384 1.466s.604.526 1.045.526c.269 0 .511-.079.726-.236s.381-.383.499-.677.176-.641.176-1.046zm30.899 3.808l-2.717-3.717a8.789 8.789 0 0 1-.527-.795h-.021c.021.379.033.806.033 1.278v3.233h-2.148v-7.702h2.191l2.604 3.534.119.167c.047.065.092.131.139.199s.092.134.133.199.072.122.094.172h.021a7.049 7.049 0 0 1-.033-.816v-3.454h2.148v7.702h-2.036zm3.551 0v-7.702h4.795v1.815h-2.475v1.123h2.324v1.815h-2.324v1.133h2.652v1.815h-4.972zm10.457 0h-2.604l-2.488-7.702h2.498l1.176 4.743c.094.383.146.669.156.859h.055a5.81 5.81 0 0 1 .166-.892l1.145-4.71h2.416l-2.52 7.702zm3.336 0v-7.702h4.795v1.815h-2.475v1.123h2.324v1.815h-2.324v1.133h2.652v1.815h-4.972z"/></svg>